<?xml version="1.0" encoding="UTF-8" standalone="no"?>
<svg
   xmlns:dc="http://purl.org/dc/elements/1.1/"
   xmlns:cc="http://creativecommons.org/ns#"
   xmlns:rdf="http://www.w3.org/1999/02/22-rdf-syntax-ns#"
   xmlns:svg="http://www.w3.org/2000/svg"
   xmlns="http://www.w3.org/2000/svg"
   version="1.1"
   id="svg2"
   width="325.07938"
   height="325.07938"
   viewBox="0 0 325.07938 325.07938">
  <metadata
     id="metadata8">
    <rdf:RDF>
      <cc:Work
         rdf:about="">
        <dc:format>image/svg+xml</dc:format>
        <dc:type
           rdf:resource="http://purl.org/dc/dcmitype/StillImage" />
        <dc:title></dc:title>
      </cc:Work>
    </rdf:RDF>
  </metadata>
  <defs
     id="defs6" />
  <g
     id="g10">
    <path
       id="path857"
       style="fill:#000000;stroke:#000000;stroke-width:1px;stroke-linecap:butt;stroke-linejoin:miter;stroke-opacity:1;fill-opacity:1"
       d="M 173.34961 67.642578 L 27.617188 213.375 C 27.617187 213.375 8.1562538 275.36948 2.4589844 307.26562 C 1.9410116 310.16549 1.3935386 313.23296 2.1992188 316.06641 C 2.4533104 316.96001 2.7893178 318.00111 3.5644531 318.89062 C 4.3395885 319.78014 5.0039062 320.51758 5.0039062 320.51758 C 5.0039062 320.51758 5.7413394 321.18189 6.6308594 321.95703 C 7.5203694 322.73216 8.5614781 323.06818 9.4550781 323.32227 C 12.288528 324.12795 15.355989 323.58047 18.255859 323.0625 C 50.152009 317.36523 112.14648 297.9043 112.14648 297.9043 L 257.87891 152.17188 L 240.86328 135.15625 L 103.85352 272.16602 L 48.419922 287.01953 L 43.460938 282.06055 L 38.501953 277.10156 L 53.355469 221.66797 L 190.36523 84.658203 L 173.34961 67.642578 z " />
    <path
       id="path859"
       style="fill:#000000;stroke:#000000;stroke-width:1px;stroke-linecap:butt;stroke-linejoin:miter;stroke-opacity:1;fill-opacity:1"
       d="M 203.46484 97.759766 L 66.044922 235.18164 L 85.207031 240.31641 L 90.339844 259.47656 L 227.76172 122.05664 L 215.61328 109.9082 L 203.46484 97.759766 z " />
    <path
       id="path861"
       style="fill:#000000;stroke:#000000;stroke-width:1px;stroke-linecap:butt;stroke-linejoin:miter;stroke-opacity:1;fill-opacity:1"
       d="M 205.14062 35.851562 L 185.74805 55.244141 L 228.01172 97.509766 L 270.27734 139.77539 L 289.66992 120.38086 L 247.40625 78.115234 L 205.14062 35.851562 z " />
    <path
       id="path863"
       style="fill:#000000;stroke:#000000;stroke-width:1px;stroke-linecap:butt;stroke-linejoin:miter;stroke-opacity:1;fill-opacity:1"
       d="M 250.91797 1.2167969 C 248.59084 1.2054282 246.25578 1.4291128 243.99414 1.8847656 C 240.75639 2.5370752 237.07958 3.9106556 234.74414 6.2460938 C 231.1173 9.8729295 218.14648 22.845703 218.14648 22.845703 L 260.41211 65.111328 L 302.67578 107.375 L 319.27539 90.777344 C 321.61083 88.441904 322.98441 84.765094 323.63672 81.527344 C 324.36577 77.908714 324.5006 74.102536 324.0293 70.441406 C 323.61967 67.259376 322.6729 63.493209 320.4043 61.224609 L 292.34961 33.171875 C 292.34961 33.171875 273.30966 14.129965 264.29688 5.1171875 C 262.02828 2.8485887 258.26211 1.9018148 255.08008 1.4921875 C 253.70715 1.315449 252.31424 1.2236181 250.91797 1.2167969 z " />
  </g>
</svg>
