<?xml version="1.0" encoding="UTF-8" standalone="no"?>
<svg
   xmlns:dc="http://purl.org/dc/elements/1.1/"
   xmlns:cc="http://creativecommons.org/ns#"
   xmlns:rdf="http://www.w3.org/1999/02/22-rdf-syntax-ns#"
   xmlns:svg="http://www.w3.org/2000/svg"
   xmlns="http://www.w3.org/2000/svg"
   version="1.1"
   id="svg926"
   width="186.24001"
   height="186.24001"
   viewBox="0 0 186.24001 186.24001">
  <metadata
     id="metadata932">
    <rdf:RDF>
      <cc:Work
         rdf:about="">
        <dc:format>image/svg+xml</dc:format>
        <dc:type
           rdf:resource="http://purl.org/dc/dcmitype/StillImage" />
        <dc:title></dc:title>
      </cc:Work>
    </rdf:RDF>
  </metadata>
  <defs
     id="defs930" />
  <g
     id="g934">
    <path
       style="fill:#000000;fill-opacity:1;stroke-width:0.32"
       d="M 29.12207,185.81772 C 14.97122,183.12651 4.6903697,173.61624 0.96427967,159.77044 c -0.74708,-2.77608 -0.8328,-3.67009 -0.83364,-8.69425 -8.6e-4,-5.11327 0.0752,-5.87715 0.87449003,-8.78875 1.02245,-3.72427 2.7685,-7.59726 4.88277,-10.83071 1.10407,-1.68849 6.1939903,-7.00942 19.1316503,-19.99995 9.69505,-9.73467 18.63537,-18.471841 19.867368,-19.415921 6.52427,-4.99958 14.70489,-7.52254 23.02207,-7.10015 3.54279,0.17992 7.57669,0.9151 9.92005,1.80792 l 0.94213,0.35895 -8.76927,8.77363 c -5.89602,5.898941 -9.05672,8.836751 -9.64657,8.966311 -2.16621,0.47578 -5.18331,3.23161 -21.755328,19.87148 -13.46311,13.51821 -17.34724,17.59849 -18.00267,18.91181 -3.24947,6.5111 -2.08092,13.87487 3.00958,18.96538 5.09051,5.09051 12.45428,6.25905 18.96538,3.00958 1.31332,-0.65543 5.393598,-4.53956 18.911818,-18.00266 16.63986,-16.57203 19.3957,-19.58912 19.87148,-21.75534 0.12955,-0.58985 3.06737,-3.75055 8.96631,-9.64656 l 8.77362,-8.76928 0.35895,0.94213 c 0.892822,2.34337 1.628002,6.37726 1.807922,9.92006 0.42077,8.28523 -2.119762,16.52285 -7.100142,23.02207 -0.94409,1.232 -9.68126,10.17231 -19.41593,19.86737 -18.66409,18.58812 -19.50673,19.32671 -24.97121,21.88745 -4.40249,2.06308 -8.268848,2.93009 -13.688188,3.06949 -3.08933,0.0795 -5.41696,-0.0284 -6.96485,-0.32278 z m 27.444848,-49.42161 c -2.75019,-0.90547 -4.81081,-2.64284 -6.11997,-5.15992 -1.06685,-2.05122 -1.06941,-5.93952 -0.005,-8 1.09668,-2.12347 70.327602,-71.404538 72.525232,-72.577768 1.36025,-0.72619 1.9836,-0.85218 4.16,-0.84087 2.11969,0.011 2.83519,0.15677 4.16,0.8474 3.27027,1.7048 5.08228,4.63286 5.10623,8.25123 0.0288,4.356 2.61062,1.47949 -36.424762,40.582897 -26.98913,27.036181 -35.61614,35.495951 -36.84147,36.127331 -1.70723,0.87969 -5.03868,1.27057 -6.56,0.7697 z m 58.180462,-35.26488 c -1.95424,-0.28668 -5.17956,-1.07284 -6.56953,-1.601301 -0.84049,-0.31955 -0.70445,-0.47595 7.91409,-9.09876 5.89601,-5.89895 9.05671,-8.83676 9.64656,-8.96632 2.16622,-0.47577 5.18331,-3.23161 21.75534,-19.871467 18.19636,-18.27085 18.25214,-18.3356 19.31574,-22.41905 2.21775,-8.514485 -3.10423,-17.498879 -11.72472,-19.793304 -2.23193,-0.59405 -5.74835,-0.588598 -8.05609,0.01249 -4.08345,1.063604 -4.14819,1.119388 -22.41904,19.315754 -16.63987,16.57202 -19.3957,19.58912 -19.87148,21.75533 -0.12956,0.58985 -3.06737,3.75055 -8.966312,9.64656 l -8.77362,8.769277 -0.35895,-0.94213 c -1.66534,-4.37093 -2.32004,-11.991887 -1.4723,-17.137817 0.95647,-5.80589 3.30198,-11.28581 6.76452,-15.80431 0.94409,-1.232 9.681252,-10.172315 19.415922,-19.867367 18.06126,-17.9877449 19.32714,-19.1167969 24.09941,-21.4945059 8.74058,-4.35485601 19.61041,-4.738184 28.89836,-1.019111 10.37843,4.155724 18.10421,13.1643809 20.87798,24.3448019 0.93804,3.781022 1.1701,10.119112 0.50912,13.905342 -1.00227,5.74125 -3.36896,11.21244 -6.77013,15.65084 -0.94409,1.232 -9.68126,10.17232 -19.41593,19.867377 -18.06768,17.99414 -19.34142,19.12999 -24.0994,21.49039 -5.95246,2.952971 -14.06818,4.230061 -20.69954,3.257281 z"
       id="path938" />
  </g>
</svg>
