<?xml version="1.0" encoding="UTF-8" standalone="no"?>
<svg
   xmlns:dc="http://purl.org/dc/elements/1.1/"
   xmlns:cc="http://creativecommons.org/ns#"
   xmlns:rdf="http://www.w3.org/1999/02/22-rdf-syntax-ns#"
   xmlns:svg="http://www.w3.org/2000/svg"
   xmlns="http://www.w3.org/2000/svg"
   version="1.1"
   id="svg2"
   width="626"
   height="626"
   viewBox="0 0 626 626">
  <metadata
     id="metadata8">
    <rdf:RDF>
      <cc:Work
         rdf:about="">
        <dc:format>image/svg+xml</dc:format>
        <dc:type
           rdf:resource="http://purl.org/dc/dcmitype/StillImage" />
        <dc:title></dc:title>
      </cc:Work>
    </rdf:RDF>
  </metadata>
  <defs
     id="defs6" />
  <g
     id="g10">
    <path
       style="fill:#000000"
       d="m 163.5,625.32844 c -25.28407,-5.76075 -42.94743,-21.75279 -49.5099,-44.82526 -1.95972,-6.89 -1.9901,-10.3744 -1.9901,-228.25 V 131 h 201 201 l -0.0171,220.75 c -0.0163,210.64849 -0.10086,221.07032 -1.84674,227.75 -5.42345,20.74997 -18.94722,35.18025 -40.63612,43.36002 l -7,2.63998 -149.5,0.14206 c -82.225,0.0781 -150.4,-0.063 -151.5,-0.31362 z m 44.88237,-63.07997 c 2.52066,-1.78579 5.18418,-4.99015 6.86763,-8.26214 L 218,548.64137 V 377 205.35863 l -2.75,-5.42313 c -3.64717,-7.19238 -9.21841,-11.10248 -16.70362,-11.72321 -7.42659,-0.61587 -15.05857,2.98691 -19.17184,9.05033 L 176.5,201.5 176.24166,375.83129 c -0.23439,158.16393 -0.10978,174.64438 1.34369,177.70733 5.58259,11.76443 20.52178,15.98945 30.79702,8.70985 z m 116.629,0.36271 c 2.13294,-1.41152 5.14045,-4.71397 6.68335,-7.33879 L 334.5,550.5 l 0.29886,-169 c 0.16437,-92.95 0.0238,-171.32766 -0.31229,-174.17259 -0.84543,-7.15556 -5.34727,-13.71639 -11.57838,-16.87393 -12.61383,-6.39192 -26.87394,0.89014 -29.93857,15.2884 -0.66718,3.13456 -0.92009,62.59466 -0.74119,174.25812 l 0.27157,169.5 2.33,4.5 c 2.64205,5.10269 4.93808,7.27767 10.67,10.10746 5.50622,2.71836 14.14353,2.05598 19.51137,-1.49628 z m 117.31142,-0.48926 c 2.86951,-1.97427 5.32364,-4.79628 6.82832,-7.85193 L 451.5,549.5 451.77298,380 c 0.18803,-116.75236 -0.0574,-171.05598 -0.78863,-174.5 -1.52686,-7.19118 -5.0975,-12.01691 -11.16739,-15.09275 -10.43168,-5.28614 -22.3824,-1.38299 -27.75829,9.06595 L 409.5,204.4464 v 172.0268 c 0,141.58961 0.23809,172.69999 1.34562,175.83156 1.60463,4.53707 8.42323,11.38659 12.63947,12.69676 5.67378,1.76309 13.92248,0.50217 18.8377,-2.8796 z M 76.405058,100.48577 C 77.934713,83.605449 85.26465,68.635732 98.452005,55.459935 108.48915,45.431583 117.61774,39.93783 131.02737,35.855478 138.24168,33.659193 140.19386,33.561875 187.5,33.040276 l 49,-0.540276 0.35187,-2.496626 c 0.6691,-4.747466 5.91155,-14.519535 10.06273,-18.757208 C 251.42809,6.6386485 257.88944,3.017078 265,1.1093556 268.2887,0.22701577 281.88216,-0.01748885 315.5,0.20101566 L 361.5,0.5 368,3.6084666 c 6.72862,3.217798 13.99389,9.6750774 16.75489,14.8915334 0.87332,1.65 2.35972,5.475 3.3031,8.5 l 1.71523,5.5 48.86339,0.538764 c 55.10396,0.607572 53.63295,0.427114 70.36339,8.63192 8.03359,3.939768 10.89697,6.061292 18.55013,13.744114 13.2735,13.324942 20.50848,28.116978 22.04481,45.070972 L 550.27586,108 H 313 75.724137 Z"
       id="path837" />
  </g>
</svg>
